HIERARCHY
ROOT Hips
{
    OFFSET 0.000000 0.000000 0.000000
    CHANNELS 6 Xposition Yposition Zposition Zrotation Xrotation Yrotation
    JOINT Chest
    {
        OFFSET -0.000000 0.078598 0.000000
        CHANNELS 3 Zrotation Xrotation Yrotation
        JOINT Chest2
        {
            OFFSET -0.000000 0.230468 0.000000
            CHANNELS 3 Zrotation Xrotation Yrotation
            JOINT Neck
            {
                OFFSET -0.000000 0.249638 0.000000
                CHANNELS 3 Zrotation Xrotation Yrotation
                JOINT Head
                {
                    OFFSET -0.000000 0.103998 0.019170
                    CHANNELS 3 Zrotation Xrotation Yrotation
                    End Site
                    {
                        OFFSET -0.000000 0.191701 0.000000
                    }
                }
            }
            JOINT LeftCollar
            {
                OFFSET 0.038274 0.205938 -0.001496
                CHANNELS 3 Zrotation Xrotation Yrotation
                JOINT LeftShoulder
                {
                    OFFSET 0.132388 0.000000 0.000000
                    CHANNELS 3 Zrotation Xrotation Yrotation
                    JOINT LeftElbow
                    {
                        OFFSET 0.250301 0.000000 0.000000
                        CHANNELS 3 Zrotation Xrotation Yrotation
                        JOINT LeftWrist
                        {
                            OFFSET 0.285291 0.000000 0.000000
                            CHANNELS 3 Zrotation Xrotation Yrotation
                            End Site
                            {
                                OFFSET 0.000000 -0.143776 0.000000
                            }
                        }
                    }
                }
            }
            JOINT RightCollar
            {
                OFFSET -0.038406 0.205938 -0.001496
                CHANNELS 3 Zrotation Xrotation Yrotation
                JOINT RightShoulder
                {
                    OFFSET -0.132388 0.000000 0.000000
                    CHANNELS 3 Zrotation Xrotation Yrotation
                    JOINT RightElbow
                    {
                        OFFSET -0.250301 0.000000 0.000000
                        CHANNELS 3 Zrotation Xrotation Yrotation
                        JOINT RightWrist
                        {
                            OFFSET -0.285291 0.000000 0.000000
                            CHANNELS 3 Zrotation Xrotation Yrotation
                            End Site
                            {
                                OFFSET -0.000000 -0.143776 0.000000
                            }
                        }
                    }
                }
            }
        }
    }
    JOINT LeftHip
    {
        OFFSET 0.095851 0.000000 0.000000
        CHANNELS 3 Zrotation Xrotation Yrotation
        JOINT LeftKnee
        {
            OFFSET -0.000000 -0.406444 0.000000
            CHANNELS 3 Zrotation Xrotation Yrotation
            JOINT LeftAnkle
            {
                OFFSET -0.000000 -0.408443 0.000000
                CHANNELS 3 Zrotation Xrotation Yrotation
                JOINT LeftToe
                {
                    OFFSET -0.000000 -0.062303 0.143776
                    CHANNELS 3 Zrotation Xrotation Yrotation
                    End Site
                    {
                        OFFSET -0.000000 0.000000 0.038340
                    }
                }
            }
        }
    }
    JOINT RightHip
    {
        OFFSET -0.095851 0.000000 0.000000
        CHANNELS 3 Zrotation Xrotation Yrotation
        JOINT RightKnee
        {
            OFFSET -0.000000 -0.406444 0.000000
            CHANNELS 3 Zrotation Xrotation Yrotation
            JOINT RightAnkle
            {
                OFFSET -0.000000 -0.408443 0.000000
                CHANNELS 3 Zrotation Xrotation Yrotation
                JOINT RightToe
                {
                    OFFSET -0.000000 -0.062303 0.143776
                    CHANNELS 3 Zrotation Xrotation Yrotation
                    End Site
                    {
                        OFFSET -0.000000 0.000000 0.038340
                    }
                }
            }
        }
    }
}
MOTION
Frames:    8
Frame Time:    0.016667
-0.022209    0.887670    0.373204    -1.515869    2.252697    -175.345886    0.369712    -1.862550    -1.100010    -3.145997    1.075078    -0.339341    0.878551    10.380101    -0.044552    -1.268852    -1.045862    0.303856    11.702605    -1.616304    -3.649784    -13.489234    -1.741889    -9.408289    -0.836677    -11.360445    0.943610    94.626503    0.870898    11.318516    -10.091189    -1.258609    0.631947    18.966612    -2.873472    3.711995    -2.982396    -8.312222    -0.978315    -89.402588    4.516534    -8.360985    3.177496    8.497425    1.295456    -0.994705    -4.384834    1.020409    -5.567511    -5.401845    12.470243    0.000000    0.000000    0.000000    -6.231020    11.627798    4.594294    0.522261    -9.805499    -0.890625    3.078290    -4.234848    -16.302023    0.000000    0.000000    0.000000    
-0.022053    0.887610    0.373092    -1.515420    2.275132    -175.425079    0.341431    -1.861570    -1.058846    -3.084885    1.069148    -0.326238    0.849168    10.453517    -0.000817    -1.281189    -1.026668    0.344652    11.622958    -1.628318    -3.590335    -13.397659    -1.685745    -9.485413    -0.884656    -11.361721    0.972595    94.976128    0.826964    11.318424    -10.128795    -1.284426    0.641363    18.998104    -2.888347    3.721426    -2.961818    -8.344337    -0.908508    -88.198395    4.393557    -8.436695    3.184709    8.556147    1.271018    -0.998410    -4.415670    1.112797    -5.558104    -5.423953    12.481373    0.000000    0.000000    0.000000    -6.242167    11.664642    4.602888    0.547652    -9.851908    -0.813520    3.029458    -4.234081    -16.294662    0.000000    0.000000    0.000000    
-0.021894    0.887587    0.373008    -1.496552    2.279773    -175.512283    0.337780    -1.900342    -1.017385    -3.049412    1.100478    -0.311913    0.879828    10.498820    0.009653    -1.381831    -0.975833    0.375449    11.593439    -1.637744    -3.572468    -13.370569    -1.650448    -9.494387    -0.882208    -11.342750    0.956744    95.016846    0.813254    11.299903    -10.118981    -1.309439    0.662722    18.909584    -2.962186    3.704524    -2.780169    -8.286287    -0.874347    -88.286880    4.371837    -8.372677    3.196074    8.598201    1.271221    -0.983509    -4.454435    1.201576    -5.560526    -5.429457    12.492396    0.000000    0.000000    0.000000    -6.225123    11.667452    4.604095    0.553905    -9.877175    -0.754537    3.029435    -4.220922    -16.278574    0.000000    0.000000    0.000000    
-0.021718    0.887549    0.372971    -1.480430    2.269789    -175.572052    0.317675    -1.927221    -0.995073    -2.985456    1.096770    -0.305109    0.831915    10.502992    0.025822    -1.396082    -0.841061    0.384629    11.590663    -1.620123    -3.568015    -13.383341    -1.637903    -9.485943    -0.876516    -11.357196    0.932450    95.011620    0.815442    11.314525    -10.124245    -1.394670    0.692946    18.885117    -2.786269    3.670710    -2.776464    -8.179906    -0.958910    -89.727737    4.612990    -8.213875    3.212885    8.597345    1.267045    -0.977086    -4.453542    1.242968    -5.550010    -5.456723    12.507354    0.000000    0.000000    0.000000    -6.204397    11.688063    4.568036    0.557483    -9.969546    -0.690329    3.043934    -4.144678    -16.268791    0.000000    0.000000    0.000000    
-0.021533    0.887507    0.372896    -1.468352    2.261704    -175.618820    0.291123    -1.993232    -0.971207    -2.919496    1.158684    -0.296075    0.742230    10.527574    0.046194    -1.341303    -0.780392    0.379377    11.544086    -1.637918    -3.597509    -13.382529    -1.604701    -9.486757    -0.810444    -11.392931    0.992155    94.973846    0.777811    11.352273    -10.127162    -1.396246    0.691052    18.864676    -2.681464    3.686714    -2.765451    -8.190277    -0.919020    -89.285217    4.468469    -8.240125    3.222737    8.601356    1.272529    -0.957238    -4.451918    1.238536    -5.564101    -5.478044    12.540154    0.000000    0.000000    0.000000    -6.185590    11.696035    4.540983    0.556570    -10.009477    -0.643815    3.054866    -4.130453    -16.240192    0.000000    0.000000    0.000000    
-0.021253    0.887425    0.372751    -1.432978    2.284431    -175.677444    0.266707    -2.007631    -0.955396    -2.831445    1.187903    -0.290792    0.674160    10.551461    0.056907    -1.359476    -0.745159    0.378183    11.533660    -1.647076    -3.555686    -13.398969    -1.626271    -9.514954    -0.869542    -11.489412    0.967017    95.300850    0.871427    11.441882    -10.148427    -1.371300    0.699799    19.455763    -0.608714    3.809692    -4.146873    -8.982209    -1.268967    -90.694885    5.176479    -8.996176    3.277795    8.652304    1.316225    -0.970071    -4.477195    1.274475    -5.475663    -5.420881    12.448453    0.000000    0.000000    0.000000    -6.130898    11.751007    4.581386    0.532436    -10.079244    -0.624378    3.053761    -4.094337    -16.234335    0.000000    0.000000    0.000000    
-0.021072    0.887452    0.372780    -1.405359    2.266666    -175.724167    0.271556    -2.024991    -0.941699    -2.804343    1.183003    -0.286621    0.566037    10.531793    0.091383    -1.282160    -0.673695    0.380344    11.541900    -1.640000    -3.525955    -13.421558    -1.650300    -9.530647    -0.909690    -11.488217    0.961491    96.658188    1.667376    11.383740    -10.138255    -1.350638    0.691304    19.328058    -0.947175    3.807000    -3.738780    -9.330534    -0.949306    -88.895027    4.402113    -9.403580    3.301607    8.629663    1.341414    -0.955780    -4.457613    1.316602    -5.485378    -5.434514    12.451830    0.000000    0.000000    0.000000    -6.095901    11.737623    4.602535    0.521132    -10.113065    -0.670202    3.056957    -4.047053    -16.164442    0.000000    0.000000    0.000000    
-0.020736    0.887568    0.372911    -1.351988    2.238980    -175.766556    0.275144    -2.023171    -0.936165    -2.741745    1.132664    -0.286688    0.470222    10.406157    0.102578    -1.322010    -0.390785    0.378186    11.503938    -1.648089    -3.510266    -13.391650    -1.666593    -9.515869    -0.975357    -11.552778    0.945497    96.959946    1.714684    11.440619    -10.138742    -1.327870    0.709776    19.357420    -0.814182    3.805753    -3.813867    -9.389607    -0.955615    -88.896782    4.360011    -9.463000    3.383410    8.576815    1.386069    -0.987064    -4.424767    1.315233    -5.488744    -5.439719    12.431997    0.000000    0.000000    0.000000    -6.010486    11.683772    4.604648    0.493006    -10.105517    -0.648941    3.075773    -3.988289    -16.173508    0.000000    0.000000    0.000000    
